<?xml version="1.0" encoding="UTF-8"?>
<svg version="1.1" xmlns="http://www.w3.org/2000/svg" width="241" height="244">
<path d="M0 0 C16.69136932 12.61478633 27.51784319 29.91362932 30.54150391 50.72753906 C31.02597848 54.75638534 31.114028 58.72105531 31.09765625 62.78125 C31.09553383 63.82968079 31.09553383 63.82968079 31.09336853 64.89929199 C31.0878367 67.09957429 31.07529777 69.29974923 31.0625 71.5 C31.05747616 73.00520685 31.05291482 74.51041532 31.04882812 76.015625 C31.03788977 79.67711735 31.02067359 83.33854817 31 87 C31.8657666 86.98428955 32.7315332 86.9685791 33.62353516 86.95239258 C36.9076158 86.90055249 40.19124742 86.86331158 43.47558594 86.83520508 C44.88353435 86.82033238 46.2914383 86.80002781 47.69921875 86.77368164 C70.1943814 86.36394832 89.93062693 92.85585634 106.58203125 108.421875 C120.06259368 122.79533413 126.60561968 140.10374033 126.5 159.6875 C126.49427979 160.92048828 126.48855957 162.15347656 126.48266602 163.42382812 C126.10234447 182.89834037 118.76314538 198.1900412 105 212 C104.32453125 212.69867188 103.6490625 213.39734375 102.953125 214.1171875 C87.55240409 228.99683139 68.32040951 232.64004 47.77368164 232.45410156 C45.99809291 232.45297033 44.22250232 232.45361231 42.44691467 232.45587158 C37.67505949 232.45700891 32.90361491 232.43366048 28.1318543 232.40557575 C23.1271041 232.38039662 18.12234221 232.37820718 13.11753845 232.37347412 C3.66188495 232.36109251 -5.79358129 232.32833673 -15.24915272 232.28807616 C-26.02315056 232.24320774 -36.79715783 232.22133367 -47.571226 232.20129442 C-69.71425476 232.15959932 -91.85711554 232.08934188 -114 232 C-114.07017521 208.21665016 -114.12302986 184.4333159 -114.15543652 160.64988327 C-114.17088545 149.6060718 -114.1919372 138.56232478 -114.22631836 127.51855469 C-114.25628117 117.88941123 -114.27558934 108.26031447 -114.28226548 98.63112569 C-114.28616609 93.53562847 -114.29529181 88.44026478 -114.31719017 83.34481049 C-114.33766413 78.54154354 -114.34381187 73.73846422 -114.33932304 68.93515778 C-114.34014339 67.17927529 -114.34604368 65.42338605 -114.35761642 63.6675415 C-114.43781977 50.86285608 -113.3509398 39.43348806 -107.3125 27.875 C-106.96364746 27.19687256 -106.61479492 26.51874512 -106.25537109 25.82006836 C-96.76144595 7.91717718 -80.84847153 -4.36170714 -61.62109375 -10.30859375 C-40.6960466 -15.82831558 -17.85559238 -12.12618165 0 0 Z " fill="#D35F85" transform="translate(115,12)"/>
</svg>
